<svg width="18" height="18" viewBox="0 0 18 18" fill="none" xmlns="http://www.w3.org/2000/svg">
<path d="M9.87655 8.61463L17.0152 1.47602C17.1562 1.31129 17.2299 1.09939 17.2216 0.882672C17.2132 0.665951 17.1234 0.46037 16.97 0.307011C16.8166 0.153652 16.6111 0.0638095 16.3943 0.0554385C16.1776 0.0470675 15.9657 0.120784 15.801 0.261857L8.66238 7.40047L1.52377 0.253246C1.36162 0.0910952 1.1417 0 0.912385 0C0.683069 0 0.463146 0.0910952 0.300996 0.253246C0.138845 0.415396 0.0477501 0.635319 0.0477501 0.864635C0.0477501 1.09395 0.138845 1.31387 0.300996 1.47602L7.44822 8.61463L0.300996 15.7532C0.210853 15.8304 0.137641 15.9254 0.0859545 16.0323C0.0342678 16.1391 0.00522237 16.2555 0.000641692 16.3741C-0.00393898 16.4927 0.0160435 16.6109 0.0593355 16.7214C0.102627 16.8319 0.168294 16.9323 0.252214 17.0162C0.336133 17.1001 0.436493 17.1658 0.546995 17.2091C0.657497 17.2524 0.775756 17.2723 0.894347 17.2678C1.01294 17.2632 1.1293 17.2341 1.23614 17.1825C1.34297 17.1308 1.43797 17.0576 1.51516 16.9674L8.66238 9.8288L15.801 16.9674C15.9657 17.1085 16.1776 17.1822 16.3943 17.1738C16.6111 17.1655 16.8166 17.0756 16.97 16.9223C17.1234 16.7689 17.2132 16.5633 17.2216 16.3466C17.2299 16.1299 17.1562 15.918 17.0152 15.7532L9.87655 8.61463Z" fill="black"/>
</svg>
