<svg width="24" height="24" viewBox="0 0 24 24" fill="none" xmlns="http://www.w3.org/2000/svg">
<g clip-path="url(#clip0)">
<path d="M20.2109 9.12605V8.20336C20.2109 5.99496 19.4294 3.94286 18.0126 2.42017C16.5605 0.857143 14.5638 0 12.3857 0H11.6243C9.44619 0 7.44955 0.857143 5.99745 2.42017C4.58064 3.94286 3.79913 5.99496 3.79913 8.20336V9.12605C2.0798 9.24202 0.713417 10.6739 0.713417 12.4235V13.8655C0.713417 15.6857 2.19577 17.1681 4.01594 17.1681H5.87644C6.20922 17.1681 6.48148 16.8958 6.48148 16.563V9.72101C6.48148 9.38824 6.20922 9.11597 5.87644 9.11597H5.00922V8.20336C5.00922 4.21513 7.85291 1.21008 11.6193 1.21008H12.3806C16.1521 1.21008 18.9907 4.21513 18.9907 8.20336V9.11597H18.1235C17.7907 9.11597 17.5185 9.38824 17.5185 9.72101V16.558C17.5185 16.8908 17.7907 17.163 18.1235 17.163H18.9706C18.7235 20.3193 16.5504 21.0504 15.542 21.2168C15.2647 20.3647 14.463 19.7496 13.5201 19.7496H12.0075C10.8378 19.7496 9.88485 20.7025 9.88485 21.8723C9.88485 23.042 10.8378 24 12.0075 24H13.5252C14.5033 24 15.3252 23.3345 15.5722 22.437C16.0664 22.3664 16.8479 22.1899 17.6243 21.7361C18.7185 21.0958 20.0143 19.7899 20.1857 17.158C21.9151 17.0521 23.2865 15.6151 23.2865 13.8605V12.4185C23.2916 10.674 21.9302 9.23697 20.2109 9.12605ZM5.28148 15.9529H4.02602C2.8714 15.9529 1.93359 15.0151 1.93359 13.8605V12.4185C1.93359 11.2639 2.8714 10.3261 4.02602 10.3261H5.28148V15.9529ZM13.5252 22.7899H12.0075C11.5033 22.7899 11.0949 22.3815 11.0949 21.8773C11.0949 21.3731 11.5033 20.9647 12.0075 20.9647H13.5252C14.0294 20.9647 14.4378 21.3731 14.4378 21.8773C14.4378 22.3815 14.0294 22.7899 13.5252 22.7899ZM22.0815 13.8605C22.0815 15.0151 21.1437 15.9529 19.989 15.9529H18.7336V10.3261H19.989C21.1437 10.3261 22.0815 11.2639 22.0815 12.4185V13.8605Z" fill="white"/>
</g>
<defs>
<clipPath id="clip0">
<rect width="24" height="24" fill="white"/>
</clipPath>
</defs>
</svg>
