<svg width="24" height="24" viewBox="0 0 24 24" fill="none" xmlns="http://www.w3.org/2000/svg">
<g clip-path="url(#clip0)">
<path d="M23.3809 6.21062L18.6703 0.236301C18.5521 0.0873288 18.3775 0 18.1874 0H5.81753C5.62746 0 5.4528 0.0873288 5.33465 0.236301L0.624033 6.21062C0.536704 6.31849 0.490471 6.45205 0.490471 6.59075V23.3836C0.490471 23.7226 0.767868 24 1.10691 24H22.8929C23.2319 24 23.5093 23.7226 23.5093 23.3836V6.59075C23.5144 6.45205 23.4682 6.31849 23.3809 6.21062ZM21.7062 6.07705H12.6189V1.23288H17.8894L21.7062 6.07705ZM6.11547 1.23288H11.386V6.07705H2.29869L6.11547 1.23288ZM1.72335 22.7671V7.30993H22.2764V22.7671H1.72335Z" fill="white"/>
<path d="M14.9254 12.2723L10.7952 16.4024L9.07949 14.6867C8.83805 14.4452 8.44764 14.4452 8.2062 14.6867C7.96476 14.9281 7.96476 15.3185 8.2062 15.5599L10.3586 17.7123C10.4767 17.8305 10.636 17.8921 10.7952 17.8921C10.9545 17.8921 11.1086 17.8305 11.2319 17.7123L15.7935 13.1507C16.035 12.9093 16.035 12.5189 15.7935 12.2774C15.5572 12.0308 15.1668 12.0308 14.9254 12.2723Z" fill="white"/>
</g>
<defs>
<clipPath id="clip0">
<rect width="24" height="24" fill="white"/>
</clipPath>
</defs>
</svg>
