<svg width="24" height="24" viewBox="0 0 24 24" fill="none" xmlns="http://www.w3.org/2000/svg">
<path d="M9.02712 5.72434L11.6291 7.6462C11.7373 7.72863 11.8661 7.7647 11.9949 7.7647C12.1237 7.7647 12.2525 7.72348 12.3607 7.6462L14.9627 5.72434C15.1224 5.60584 15.2152 5.4255 15.2152 5.22456V1.89609C15.2152 1.55603 14.937 1.2778 14.5969 1.2778H9.3981C9.05804 1.2778 8.77981 1.55603 8.77981 1.89609V5.22456C8.77981 5.42035 8.87255 5.60584 9.02712 5.72434ZM10.0164 2.51438H13.9889V4.91026L12.0001 6.3787L10.0164 4.91541V2.51438Z" fill="white"/>
<path d="M21.4135 3.90554H16.8021C16.462 3.90554 16.1838 4.18377 16.1838 4.52383C16.1838 4.86389 16.462 5.14212 16.8021 5.14212H21.4135C22.1606 5.14212 22.7634 5.75011 22.7634 6.49206V20.1357C22.7634 20.8828 22.1554 21.4856 21.4135 21.4856H2.58652C1.83942 21.4856 1.23658 20.8776 1.23658 20.1357V6.49206C1.23658 5.74496 1.84457 5.14212 2.58652 5.14212H7.19279C7.53285 5.14212 7.81108 4.86389 7.81108 4.52383C7.81108 4.18377 7.53285 3.90554 7.19279 3.90554H2.58652C1.1593 3.90554 0 5.06484 0 6.49206V20.1357C0 21.5629 1.1593 22.7222 2.58652 22.7222H21.4135C22.8407 22.7222 24 21.5629 24 20.1357V6.49206C24 5.06484 22.8407 3.90554 21.4135 3.90554Z" fill="white"/>
<path d="M4.47754 10.3821C4.47754 11.5723 5.4462 12.541 6.63641 12.541C7.82662 12.541 8.79528 11.5723 8.79528 10.3821C8.79528 9.19192 7.82662 8.22327 6.63641 8.22327C5.4462 8.22327 4.47754 9.19192 4.47754 10.3821ZM7.55869 10.3821C7.55869 10.8922 7.1465 11.3044 6.63641 11.3044C6.12632 11.3044 5.71412 10.8922 5.71412 10.3821C5.71412 9.87204 6.12632 9.45984 6.63641 9.45984C7.1465 9.45984 7.55869 9.87204 7.55869 10.3821Z" fill="white"/>
<path d="M6.63624 12.9841C5.41511 12.9841 4.42585 13.5509 3.77664 14.6226C3.30777 15.3954 3.01408 16.4414 2.89558 17.7295C2.86466 18.0695 3.11713 18.3684 3.45719 18.3993C3.79725 18.4302 4.09609 18.1777 4.12701 17.8377C4.34856 15.4367 5.19356 14.2207 6.63624 14.2207C8.07892 14.2207 8.92391 15.4367 9.14547 17.8377C9.17638 18.1571 9.44431 18.3993 9.75861 18.3993C9.77922 18.3993 9.79468 18.3993 9.81528 18.3941C10.1553 18.3632 10.4078 18.0644 10.3769 17.7243C10.2584 16.4362 9.95955 15.3954 9.49583 14.6174C8.84663 13.5509 7.85736 12.9841 6.63624 12.9841Z" fill="white"/>
<path d="M19.6462 9.37741H12.7419C12.4019 9.37741 12.1236 9.65564 12.1236 9.9957C12.1236 10.3358 12.4019 10.614 12.7419 10.614H19.6462C19.9862 10.614 20.2644 10.3358 20.2644 9.9957C20.2644 9.65564 19.9862 9.37741 19.6462 9.37741Z" fill="white"/>
<path d="M20.2644 14.4216C20.2644 14.0816 19.9862 13.8033 19.6462 13.8033H12.7419C12.4019 13.8033 12.1236 14.0816 12.1236 14.4216C12.1236 14.7617 12.4019 15.0399 12.7419 15.0399H19.6462C19.9862 15.0399 20.2644 14.7668 20.2644 14.4216Z" fill="white"/>
<path d="M12.7419 16.0086C12.4019 16.0086 12.1236 16.2868 12.1236 16.6269C12.1236 16.9669 12.4019 17.2452 12.7419 17.2452H16.1941C16.5341 17.2452 16.8123 16.9669 16.8123 16.6269C16.8123 16.2868 16.5341 16.0086 16.1941 16.0086H12.7419Z" fill="white"/>
<path d="M19.6462 11.5826H12.7419C12.4019 11.5826 12.1236 11.8609 12.1236 12.2009C12.1236 12.541 12.4019 12.8192 12.7419 12.8192H19.6462C19.9862 12.8192 20.2644 12.541 20.2644 12.2009C20.2644 11.8609 19.9862 11.5826 19.6462 11.5826Z" fill="white"/>
</svg>
