<svg width="24" height="24" viewBox="0 0 24 24" fill="none" xmlns="http://www.w3.org/2000/svg">
<path d="M12.8082 15.0636H11.4361C10.9371 15.0636 10.533 14.6595 10.533 14.1605C10.533 13.6615 10.9371 13.2574 11.4361 13.2574H13.8511C14.1804 13.2574 14.4498 12.9879 14.4498 12.6586C14.4498 12.3293 14.1804 12.0599 13.8511 12.0599H12.7184V11.2266C12.7184 10.8973 12.449 10.6279 12.1197 10.6279C11.7903 10.6279 11.5209 10.8973 11.5209 11.2266V12.0599H11.4361C10.2785 12.0599 9.33546 13.0029 9.33546 14.1605C9.33546 15.3181 10.2785 16.2611 11.4361 16.2611H12.8082C13.3072 16.2611 13.7113 16.6653 13.7113 17.1642C13.7113 17.6632 13.3072 18.0674 12.8082 18.0674H10.3484C10.019 18.0674 9.7496 18.3368 9.7496 18.6661C9.7496 18.9954 10.019 19.2649 10.3484 19.2649H11.5259V20.1181C11.5259 20.4474 11.7953 20.7168 12.1247 20.7168C12.454 20.7168 12.7234 20.4474 12.7234 20.1181V19.2649H12.8232C12.8282 19.2649 12.8332 19.2649 12.8382 19.2649C13.9858 19.2499 14.9089 18.3118 14.9089 17.1642C14.9089 16.0066 13.9658 15.0636 12.8082 15.0636Z" fill="white"/>
<path d="M21.121 13.7064C20.4923 12.2595 19.6241 10.8574 18.5264 9.54511C17.1991 7.94844 15.8769 6.88067 15.2033 6.38669L17.748 1.66653C17.8727 1.43202 17.8328 1.14262 17.6382 0.958004C16.9796 0.314345 16.2811 0 15.5027 0C14.7892 0 14.1355 0.269439 13.5667 0.50894C13.1176 0.693555 12.6935 0.873181 12.3492 0.873181C12.2445 0.873181 12.1547 0.858212 12.0648 0.823285C10.8773 0.389189 9.96422 0.119751 9.08106 0.119751C7.96339 0.119751 7.01037 0.568815 6.07731 1.52682C5.88272 1.7264 5.85278 2.04075 6.00746 2.27526L8.75174 6.42162C8.07316 6.92557 6.77586 7.98337 5.47357 9.54511C4.38085 10.8574 3.50767 12.2595 2.87898 13.7064C2.09062 15.5277 1.69145 17.4287 1.69145 19.3547C1.69145 21.9143 3.77711 24 6.33677 24H17.6632C20.2228 24 22.3085 21.9143 22.3085 19.3547C22.3085 17.4287 21.9093 15.5277 21.121 13.7064ZM7.2848 2.02578C7.86359 1.52682 8.41744 1.30728 9.08106 1.30728C9.78958 1.30728 10.5879 1.54678 11.6507 1.94096C11.8702 2.02079 12.1048 2.06071 12.3443 2.06071C12.928 2.06071 13.4869 1.83119 14.0208 1.60665C14.5347 1.3921 15.0237 1.18753 15.4977 1.18753C15.7272 1.18753 16.0515 1.22744 16.4607 1.51684L14.0657 5.96757H9.89436L7.2848 2.02578ZM17.6632 22.8025H6.33677C4.43573 22.8025 2.88896 21.2557 2.88896 19.3547C2.88896 16.1563 4.06151 13.1227 6.36671 10.3385C7.82368 8.57713 9.30559 7.48441 9.75465 7.16507H14.2353C14.6894 7.47942 16.1663 8.57713 17.6233 10.3385C19.9334 13.1227 21.101 16.1514 21.101 19.3547C21.111 21.2557 19.5642 22.8025 17.6632 22.8025Z" fill="white"/>
</svg>
