<svg width="24" height="24" viewBox="0 0 24 24" fill="none" xmlns="http://www.w3.org/2000/svg">
<path d="M23.0091 0H0.990747C0.652791 0 0.376282 0.276509 0.376282 0.614466C0.376282 0.952422 0.652791 1.22893 0.990747 1.22893H2.31697V23.3702C2.31697 23.5955 2.43986 23.8054 2.63956 23.913C2.83926 24.0205 3.07993 24.0102 3.26939 23.8822L5.93719 22.1054L8.61524 23.8873C8.82006 24.0256 9.09145 24.0256 9.29627 23.8873L11.9641 22.1105L14.6421 23.8925C14.8469 24.0307 15.1183 24.0307 15.3232 23.8925L17.991 22.1156L20.669 23.8976C20.7714 23.9642 20.8892 24 21.007 24C21.1043 24 21.2067 23.9744 21.2988 23.9283C21.4985 23.8208 21.6214 23.6108 21.6214 23.3855L21.6112 1.24429H23.0091C23.3471 1.24429 23.6236 0.967783 23.6236 0.629827C23.6236 0.291871 23.3471 0 23.0091 0ZM20.3976 22.2232L18.334 20.8509C18.1292 20.7126 17.8578 20.7126 17.653 20.8509L14.9852 22.6328L12.3072 20.8509C12.1023 20.7126 11.8309 20.7126 11.6261 20.8509L8.95832 22.6277L6.28027 20.8509C6.07545 20.7126 5.80406 20.7126 5.59924 20.8509L3.5459 22.218V1.22381H20.3925L20.3976 22.2232Z" fill="white"/>
<path d="M6.37236 9.81097H12.8089C13.1468 9.81097 13.4233 9.53446 13.4233 9.1965C13.4233 8.85854 13.1468 8.58204 12.8089 8.58204H6.37236C6.03441 8.58204 5.7579 8.85854 5.7579 9.1965C5.7579 9.53446 6.02928 9.81097 6.37236 9.81097Z" fill="white"/>
<path d="M6.37236 11.9462H11.1959C11.5339 11.9462 11.8104 11.6697 11.8104 11.3318C11.8104 10.9938 11.5339 10.7173 11.1959 10.7173H6.37236C6.03441 10.7173 5.7579 10.9938 5.7579 11.3318C5.7579 11.6697 6.02929 11.9462 6.37236 11.9462Z" fill="white"/>
<path d="M16.0246 9.81097H17.6324C17.9704 9.81097 18.2469 9.53446 18.2469 9.1965C18.2469 8.85854 17.9704 8.58204 17.6324 8.58204H16.0246C15.6866 8.58204 15.4101 8.85854 15.4101 9.1965C15.4101 9.53446 15.6815 9.81097 16.0246 9.81097Z" fill="white"/>
<path d="M16.0246 11.9462H17.6324C17.9704 11.9462 18.2469 11.6697 18.2469 11.3318C18.2469 10.9938 17.9704 10.7173 17.6324 10.7173H16.0246C15.6866 10.7173 15.4101 10.9938 15.4101 11.3318C15.4101 11.6697 15.6815 11.9462 16.0246 11.9462Z" fill="white"/>
<path d="M6.37236 4.87988H12.8089C13.1468 4.87988 13.4233 4.60337 13.4233 4.26541C13.4233 3.92746 13.1468 3.65095 12.8089 3.65095H6.37236C6.03441 3.65095 5.7579 3.92746 5.7579 4.26541C5.7579 4.60337 6.02928 4.87988 6.37236 4.87988Z" fill="white"/>
<path d="M6.37236 7.01003H11.1959C11.5339 7.01003 11.8104 6.73352 11.8104 6.39557C11.8104 6.05761 11.5339 5.7811 11.1959 5.7811H6.37236C6.03441 5.7811 5.7579 6.05761 5.7579 6.39557C5.7579 6.73352 6.02929 7.01003 6.37236 7.01003Z" fill="white"/>
<path d="M16.0246 4.87988H17.6324C17.9704 4.87988 18.2469 4.60337 18.2469 4.26541C18.2469 3.92746 17.9704 3.65095 17.6324 3.65095H16.0246C15.6866 3.65095 15.4101 3.92746 15.4101 4.26541C15.4101 4.60337 15.6815 4.87988 16.0246 4.87988Z" fill="white"/>
<path d="M16.0246 7.01003H17.6324C17.9704 7.01003 18.2469 6.73352 18.2469 6.39557C18.2469 6.05761 17.9704 5.7811 17.6324 5.7811H16.0246C15.6866 5.7811 15.4101 6.05761 15.4101 6.39557C15.4101 6.73352 15.6815 7.01003 16.0246 7.01003Z" fill="white"/>
<path d="M6.37236 14.8035H12.8089C13.1468 14.8035 13.4233 14.527 13.4233 14.189C13.4233 13.8511 13.1468 13.5746 12.8089 13.5746H6.37236C6.03441 13.5746 5.7579 13.8511 5.7579 14.189C5.7579 14.527 6.02928 14.8035 6.37236 14.8035Z" fill="white"/>
<path d="M6.37236 16.9336H11.1959C11.5339 16.9336 11.8104 16.6571 11.8104 16.3192C11.8104 15.9812 11.5339 15.7047 11.1959 15.7047H6.37236C6.03441 15.7047 5.7579 15.9812 5.7579 16.3192C5.7579 16.6571 6.02929 16.9336 6.37236 16.9336Z" fill="white"/>
<path d="M16.0246 14.8035H17.6324C17.9704 14.8035 18.2469 14.527 18.2469 14.189C18.2469 13.8511 17.9704 13.5746 17.6324 13.5746H16.0246C15.6866 13.5746 15.4101 13.8511 15.4101 14.189C15.4101 14.527 15.6815 14.8035 16.0246 14.8035Z" fill="white"/>
<path d="M16.0246 16.9336H17.6324C17.9704 16.9336 18.2469 16.6571 18.2469 16.3192C18.2469 15.9812 17.9704 15.7047 17.6324 15.7047H16.0246C15.6866 15.7047 15.4101 15.9812 15.4101 16.3192C15.4101 16.6571 15.6815 16.9336 16.0246 16.9336Z" fill="white"/>
</svg>
