<svg width="24" height="24" viewBox="0 0 24 24" fill="none" xmlns="http://www.w3.org/2000/svg">
<g clip-path="url(#clip0)">
<path d="M21.588 20.8007L20.207 5.23618C20.1821 4.92817 19.9238 4.69468 19.6108 4.69468H16.6996C16.6946 2.1064 14.5883 0 12 0C9.41168 0 7.30528 2.1064 7.30032 4.69468H4.38912C4.08111 4.69468 3.82278 4.92817 3.79297 5.23618L2.41189 20.8007C2.41189 20.8205 2.41189 20.8354 2.41189 20.8553C2.41189 22.5891 4.00659 24 5.96395 24H18.036C19.9933 24 21.588 22.5891 21.588 20.8553C21.588 20.8354 21.588 20.8205 21.588 20.8007ZM12 1.1923C13.9325 1.1923 15.5023 2.76216 15.5073 4.69468H8.49262C8.49758 2.76216 10.0674 1.1923 12 1.1923ZM18.036 22.8027H5.96395C4.67229 22.8027 3.61909 21.9433 3.60419 20.8752L4.93559 5.88698H7.30032V7.97847C7.30032 8.30636 7.56858 8.57462 7.89647 8.57462C8.22435 8.57462 8.49262 8.30636 8.49262 7.97847V5.88698H15.5073V7.97847C15.5073 8.30636 15.7756 8.57462 16.1035 8.57462C16.4313 8.57462 16.6996 8.30636 16.6996 7.97847V5.88698H19.0643L20.3957 20.8801C20.3808 21.9433 19.3276 22.8027 18.036 22.8027Z" fill="white"/>
</g>
<defs>
<clipPath id="clip0">
<rect width="24" height="24" fill="white"/>
</clipPath>
</defs>
</svg>
