<svg width="37" height="37" viewBox="0 0 37 37" fill="none" xmlns="http://www.w3.org/2000/svg">
<circle cx="18.5" cy="18.5" r="18.5" fill="#FFB23F"/>
<path d="M12 16.3313V22.1852C12 23.7982 12.5433 25.1706 13.63 26.3024C14.7166 27.4341 16.0343 28 17.5831 28H19.1944C20.5933 28 21.8111 27.5252 22.8478 26.5756C23.8845 25.6259 24.5027 24.4356 24.7026 23.0047H24.7775C25.6518 23.0047 26.4075 22.6795 27.0445 22.0291C27.6815 21.3786 28 20.5981 28 19.6875C28 18.7769 27.6815 17.9899 27.0445 17.3264C26.4075 16.663 25.6518 16.3313 24.7775 16.3313C24.7775 15.889 24.6214 15.5052 24.3091 15.18C23.9969 14.8548 23.6284 14.6922 23.2037 14.6922H13.6112C13.1616 14.6922 12.7806 14.8548 12.4684 15.18C12.1561 15.5052 12 15.889 12 16.3313ZM24.7775 18.0094C25.2272 18.0094 25.6081 18.172 25.9204 18.4972C26.2326 18.8224 26.3888 19.2192 26.3888 19.6875C26.3888 20.1298 26.2326 20.5135 25.9204 20.8388C25.6081 21.164 25.2272 21.3266 24.7775 21.3266V18.0094ZM23.2037 22.1852C23.2037 23.3299 22.8165 24.3056 22.0422 25.1121C21.2678 25.9186 20.3185 26.3219 19.1944 26.3219H17.5831C16.484 26.3219 15.5472 25.9186 14.7728 25.1121C13.9984 24.3056 13.6112 23.3299 13.6112 22.1852V16.3313H23.2037V22.1852ZM17.4333 9.34567C17.6831 8.85134 17.6081 8.46108 17.2084 8.17489C16.7838 7.8887 16.434 7.95375 16.1593 8.37002L15.7471 8.91638C15.2974 9.67088 15.1163 10.4839 15.2037 11.3555C15.2912 12.2271 15.6347 12.9751 16.2342 13.5995C16.3841 13.7556 16.5714 13.8336 16.7963 13.8336C17.0211 13.8336 17.2084 13.7556 17.3583 13.5995C17.6831 13.2092 17.6831 12.819 17.3583 12.4287C17.0336 12.0905 16.8462 11.6807 16.7963 11.1994C16.7463 10.7181 16.8587 10.2693 17.1335 9.853L17.4333 9.34567ZM20.2436 11.414L20.5433 11.1018C20.8931 10.7376 20.918 10.3473 20.6183 9.93105C20.5183 9.77495 20.3497 9.6904 20.1124 9.67739C19.8751 9.66438 19.6815 9.72292 19.5316 9.853L19.1944 10.1652C18.6448 10.6595 18.4075 11.2449 18.4824 11.9214C18.5574 12.6499 18.9571 13.2352 19.6815 13.6775C19.7315 13.7816 19.8314 13.8336 19.9813 13.8336C20.281 13.8336 20.5308 13.7035 20.7307 13.4434C21.0055 12.949 20.8931 12.5588 20.3934 12.2726C20.1187 12.0905 19.9813 11.9474 19.9813 11.8433L20.2436 11.414Z" fill="black"/>
</svg>
